<svg width="20" height="20" viewBox="0 0 20 20" fill="none" xmlns="http://www.w3.org/2000/svg">
<path fill-rule="evenodd" clip-rule="evenodd" d="M18 0H2C0.9 0 0.01 0.9 0.01 2L0 20L4 15H18C19.1 15 20 14.1 20 13V2C20 0.9 19.1 0 18 0ZM11 11H5C4.45 11 4 10.55 4 10C4 9.45 4.45 9 5 9H11C11.55 9 12 9.45 12 10C12 10.55 11.55 11 11 11ZM15 6H5C4.45 6 4 5.55 4 5C4 4.45 4.45 4 5 4H15C15.55 4 16 4.45 16 5C16 5.55 15.55 6 15 6Z" fill="white"/>
<mask id="mask0_21_27" style="mask-type:alpha" maskUnits="userSpaceOnUse" x="-1" y="-1" width="22" height="23">
<path fill-rule="evenodd" clip-rule="evenodd" d="M18 0H2C0.9 0 0.01 0.9 0.01 2L0 20L4 15H18C19.1 15 20 14.1 20 13V2C20 0.9 19.1 0 18 0ZM11 11H5C4.45 11 4 10.55 4 10C4 9.45 4.45 9 5 9H11C11.55 9 12 9.45 12 10C12 10.55 11.55 11 11 11ZM15 6H5C4.45 6 4 5.55 4 5C4 4.45 4.45 4 5 4H15C15.55 4 16 4.45 16 5C16 5.55 15.55 6 15 6Z" fill="white"/>
<path d="M0.01 2L0.51 2.00028V2H0.01ZM0 20L-0.5 19.9997L-0.500793 21.4264L0.390434 20.3123L0 20ZM4 15V14.5H3.75969L3.60957 14.6877L4 15ZM18 -0.5H2V0.5H18V-0.5ZM2 -0.5C0.620601 -0.5 -0.49 0.627126 -0.49 2H0.51C0.51 1.17287 1.1794 0.5 2 0.5V-0.5ZM-0.49 1.99972L-0.5 19.9997L0.5 20.0003L0.51 2.00028L-0.49 1.99972ZM0.390434 20.3123L4.39043 15.3123L3.60957 14.6877L-0.390434 19.6877L0.390434 20.3123ZM4 15.5H18V14.5H4V15.5ZM18 15.5C19.3761 15.5 20.5 14.3761 20.5 13H19.5C19.5 13.8239 18.8239 14.5 18 14.5V15.5ZM20.5 13V2H19.5V13H20.5ZM20.5 2C20.5 0.623858 19.3761 -0.5 18 -0.5V0.5C18.8239 0.5 19.5 1.17614 19.5 2H20.5ZM11 10.5H5V11.5H11V10.5ZM5 10.5C4.72614 10.5 4.5 10.2739 4.5 10H3.5C3.5 10.8261 4.17386 11.5 5 11.5V10.5ZM4.5 10C4.5 9.72614 4.72614 9.5 5 9.5V8.5C4.17386 8.5 3.5 9.17386 3.5 10H4.5ZM5 9.5H11V8.5H5V9.5ZM11 9.5C11.2739 9.5 11.5 9.72614 11.5 10H12.5C12.5 9.17386 11.8261 8.5 11 8.5V9.5ZM11.5 10C11.5 10.2739 11.2739 10.5 11 10.5V11.5C11.8261 11.5 12.5 10.8261 12.5 10H11.5ZM15 5.5H5V6.5H15V5.5ZM5 5.5C4.72614 5.5 4.5 5.27386 4.5 5H3.5C3.5 5.82614 4.17386 6.5 5 6.5V5.5ZM4.5 5C4.5 4.72614 4.72614 4.5 5 4.5V3.5C4.17386 3.5 3.5 4.17386 3.5 5H4.5ZM5 4.5H15V3.5H5V4.5ZM15 4.5C15.2739 4.5 15.5 4.72614 15.5 5H16.5C16.5 4.17386 15.8261 3.5 15 3.5V4.5ZM15.5 5C15.5 5.27386 15.2739 5.5 15 5.5V6.5C15.8261 6.5 16.5 5.82614 16.5 5H15.5Z" fill="white"/>
</mask>
<g mask="url(#mask0_21_27)">
</g>
</svg>
